<?xml version="1.0" standalone="no"?>
<!DOCTYPE svg PUBLIC "-//W3C//DTD SVG 20010904//EN"
 "http://www.w3.org/TR/2001/REC-SVG-20010904/DTD/svg10.dtd">
<svg version="1.0" xmlns="http://www.w3.org/2000/svg"
 width="194.000000pt" height="194.000000pt" viewBox="0 0 194.000000 194.000000"
 preserveAspectRatio="xMidYMid meet">
<metadata>
Created by potrace 1.11, written by Peter Selinger 2001-2013
</metadata>
<g transform="translate(0.000000,194.000000) scale(0.100000,-0.100000)"
fill="#000000" stroke="none">
<path d="M463 1532 c-117 -23 -243 -98 -319 -189 -61 -73 -62 -69 8 -113 l63
-40 20 28 c130 179 384 229 570 111 266 -168 264 -550 -2 -719 -164 -104 -383
-79 -522 60 -50 51 -107 152 -113 200 l-3 25 208 0 208 0 -3 75 -3 75 -285 0
-285 0 1 -65 c2 -126 23 -203 81 -302 117 -200 353 -311 582 -276 123 20 269
101 347 193 54 64 83 117 112 205 23 71 25 88 26 327 1 139 4 254 6 257 3 2
73 -132 155 -299 135 -274 165 -327 165 -295 0 17 281 575 298 592 4 4 7 -216
7 -490 l0 -497 53 1 c41 1 59 6 75 23 22 21 22 22 22 551 l0 530 -22 22 c-20
19 -34 22 -118 23 -52 1 -99 -1 -104 -4 -4 -4 -56 -99 -114 -213 -59 -114
-109 -203 -112 -198 -3 5 -49 94 -102 197 -52 103 -101 195 -107 203 -9 12
-34 15 -121 15 -60 0 -115 -3 -121 -7 -6 -4 -10 -39 -9 -88 1 -44 0 -80 -1
-80 -2 0 -33 22 -69 50 -76 58 -130 84 -215 106 -81 21 -174 23 -257 6z"/>
</g>
</svg>
