<svg width="240" height="160" viewBox="0 0 240 160" fill="none" xmlns="http://www.w3.org/2000/svg">
<path d="M131 80C131 107.614 108.614 130 81 130C53.3858 130 31 107.614 31 80H81M131 80C131 52.3858 108.614 30 81 30C62.9088 30 47.0617 39.6082 38.2832 54M131 80V30H137.25H143.5L156.5 55L170 82.5L183.5 55L196.5 30H202.75H208.99C208.996 30 209 30.0045 209 30.01V129.99C209 129.996 208.996 130 208.99 130H201.5" stroke="#eb5e28" stroke-width="15"/>
<path d="M215 10H25C16.7157 10 10 16.7157 10 25V135C10 143.284 16.7157 150 25 150H215C223.284 150 230 143.284 230 135V25C230 16.7157 223.284 10 215 10Z" stroke="#eb5e28" stroke-width="20"/>
</svg>
