<svg width="470" height="475" viewBox="0 0 470 475" fill="none" xmlns="http://www.w3.org/2000/svg">
<path d="M148.872 160.897C151.213 160.897 153.572 160.144 155.56 158.59L176.452 142.265L192.261 155.646C195.484 158.37 199.69 159.575 203.795 158.962C207.903 158.345 211.566 155.953 213.846 152.399L245.124 103.624L266.464 126.773C269.481 130.044 273.684 131.723 277.98 131.382C282.283 131.041 286.164 128.722 288.626 125.017L335.671 54.2431L347.815 63.7041C349.32 64.8781 350.918 65.4981 352.433 65.4981C352.434 65.4981 352.434 65.4981 352.434 65.4981C355.435 65.4981 357.629 63.2151 358.163 59.5411L365.719 7.47806C366.061 5.12106 365.608 3.14606 364.409 1.75906C362.797 -0.103941 359.979 -0.532941 357.01 0.692059L308.376 20.7551C305.773 21.8281 304.179 23.6101 303.885 25.7721C303.591 27.9351 304.652 30.0781 306.871 31.8061L318.464 40.8371L275.882 104.899L254.38 81.5751C251.342 78.2791 247.112 76.6141 242.792 76.9841C238.467 77.3631 234.598 79.7441 232.177 83.5171L199.998 133.699L186.917 122.628C181.264 117.842 172.597 117.673 166.759 122.235L142.167 141.452C137.435 145.15 136.596 151.985 140.294 156.718C142.439 159.462 145.638 160.897 148.872 160.897Z" fill="#403D39"/>
<path d="M69.4219 375.146C87.7599 375.146 102.679 360.224 102.679 341.882C102.679 323.539 87.7599 308.616 69.4219 308.616C51.0809 308.616 36.1599 323.539 36.1599 341.882C36.1609 360.224 51.0809 375.146 69.4219 375.146Z" fill="#403D39"/>
<path d="M107.113 386.937C104.694 382.296 99.9369 379.415 94.6999 379.415C94.5689 379.415 45.7279 379.437 45.6319 379.437C40.0499 379.437 36.1639 382.482 33.8429 386.937L2.41595 447.178C0.687946 450.492 0.352946 454.28 1.47395 457.845C2.59495 461.409 5.03695 464.324 8.34795 466.052C10.0589 466.944 11.8929 467.466 13.7989 467.606C14.1369 467.63 14.4749 467.644 14.8119 467.644C20.0469 467.644 24.8029 464.76 27.2239 460.12L36.3059 442.711V467.455C36.3059 471.259 39.4009 474.353 43.2049 474.353H97.5739C101.379 474.353 104.474 471.258 104.474 467.455V442.379L113.729 460.12C116.148 464.76 120.904 467.642 126.141 467.644C126.479 467.644 126.816 467.63 127.154 467.606C129.061 467.466 130.894 466.944 132.604 466.052C135.917 464.324 138.358 461.41 139.479 457.845C140.6 454.28 140.265 450.492 138.538 447.178L107.113 386.937Z" fill="#403D39"/>
<path d="M201.026 341.882C201.026 360.224 215.947 375.146 234.288 375.146C252.626 375.146 267.545 360.224 267.545 341.882C267.545 323.539 252.626 308.616 234.288 308.616C215.947 308.617 201.026 323.539 201.026 341.882Z" fill="#403D39"/>
<path d="M271.978 386.937C269.559 382.296 264.802 379.415 259.565 379.415C259.434 379.415 210.593 379.437 210.497 379.437C204.956 379.437 201.029 382.482 198.708 386.937L167.282 447.178C165.553 450.492 165.219 454.28 166.34 457.845C167.461 461.409 169.903 464.324 173.214 466.052C174.925 466.944 176.759 467.466 178.665 467.606C179.003 467.63 179.341 467.644 179.678 467.644C184.913 467.644 189.669 464.76 192.09 460.12L201.172 442.711V467.455C201.172 471.259 204.267 474.353 208.071 474.353H262.44C266.245 474.353 269.34 471.258 269.34 467.455V442.379L278.595 460.12C281.014 464.76 285.77 467.642 291.007 467.644C291.345 467.644 291.682 467.63 292.02 467.606C293.927 467.466 295.76 466.944 297.47 466.052C300.783 464.324 303.224 461.41 304.345 457.845C305.466 454.28 305.131 450.492 303.404 447.178L271.978 386.937Z" fill="#403D39"/>
<path d="M365.559 341.882C365.559 360.224 380.48 375.146 398.821 375.146C417.159 375.146 432.078 360.224 432.078 341.882C432.078 323.539 417.159 308.616 398.821 308.616C380.48 308.617 365.559 323.539 365.559 341.882Z" fill="#403D39"/>
<path d="M467.937 447.178L436.511 386.937C434.092 382.296 429.335 379.415 424.098 379.415C423.967 379.415 375.126 379.437 375.03 379.437C369.846 379.437 365.562 382.482 363.241 386.937L331.815 447.178C330.087 450.492 329.752 454.28 330.873 457.845C331.994 461.409 334.436 464.324 337.747 466.052C339.458 466.944 341.292 467.466 343.198 467.606C343.536 467.63 343.874 467.644 344.211 467.644C349.446 467.644 354.202 464.76 356.623 460.12L365.705 442.711V467.455C365.705 471.259 368.8 474.353 372.604 474.353H426.973C430.778 474.353 433.873 471.258 433.873 467.455V442.379L443.128 460.12C445.547 464.76 450.303 467.642 455.54 467.644C455.878 467.644 456.215 467.63 456.553 467.606C458.46 467.466 460.293 466.944 462.003 466.052C465.316 464.324 467.757 461.41 468.878 457.845C469.999 454.28 469.664 450.492 467.937 447.178Z" fill="#403D39"/>
<path d="M70.8099 281.339C74.9139 281.339 78.2419 278.012 78.2419 273.907V248.538H227.911V273.907C227.911 278.011 231.238 281.339 235.343 281.339C239.447 281.339 242.775 278.012 242.775 273.907V248.538H392.445V273.907C392.445 278.011 395.772 281.339 399.877 281.339C403.982 281.339 407.309 278.012 407.309 273.907V244.41C407.309 238.491 402.494 233.676 396.575 233.676H242.774V201.15L246.135 204.874C247.602 206.499 249.623 207.326 251.653 207.326C253.428 207.326 255.21 206.693 256.631 205.41C259.678 202.66 259.918 197.961 257.167 194.915L242.928 179.142C240.994 177 238.251 175.772 235.402 175.772C232.553 175.772 229.809 177.001 227.877 179.142L213.637 194.915C210.886 197.961 211.126 202.66 214.173 205.41C217.218 208.16 221.918 207.921 224.668 204.874L227.912 201.281V233.676H74.1129C68.1939 233.676 63.3789 238.491 63.3789 244.41V273.908C63.3779 278.012 66.7059 281.339 70.8099 281.339Z" fill="#403D39"/>
</svg>
