<svg width="1761" height="1090" viewBox="0 0 1761 1090" fill="none" xmlns="http://www.w3.org/2000/svg">
<path d="M0.5 0.5H1760.5C1760.5 0.5 1636.46 5.57737 1474 16.8843C1425.04 20.2917 1372.59 24.265 1319 28.8356C1242.56 35.3543 1163.8 43.088 1089.5 52.1282C906.615 74.381 750.811 104.55 723.5 144C651.5 248 719.5 331.5 688.5 379C657.5 426.5 455.5 366 482.5 288C509.5 210 360 220 299.5 323C239 426 364 565.5 183.5 587C96.521 597.36 121.501 856 243.5 922.5C365.5 989 0.5 1078.1 0.5 1089.5C0.5 1111.5 0.5 0.5 0.5 0.5Z" fill="#FFE4C4"/>
</svg>
